<svg width="286" height="44" viewBox="0 0 286 44" fill="none" xmlns="http://www.w3.org/2000/svg">
<g clip-path="url(#clip0_515_91)">
<path d="M26.6074 34.3352H28.4911L28.5076 42.7625H26.6239L26.6074 34.3352Z" fill="white"/>
<path d="M49.044 34.2988L49.0511 37.2888L45.1565 37.2952L45.1494 34.3052L43.2822 34.3073L43.2987 42.6683L45.1659 42.6662L45.1589 38.8127L49.0534 38.8063L49.0605 42.6598L50.9348 42.6555L50.9183 34.2966L49.044 34.2988Z" fill="white"/>
<path d="M60.8525 34.2795H62.7362L62.7527 42.6384H60.869L60.8525 34.2795Z" fill="white"/>
<path d="M63.7871 39.6421V34.2754H65.6543V39.2445C65.6423 39.5426 65.6684 39.841 65.732 40.1337C65.8757 40.5611 66.064 41.1211 66.9635 41.1253H71.1406V42.6343H66.8293C65.8686 42.6343 65.1269 42.3756 64.59 41.8456C64.0532 41.3156 63.7895 40.5803 63.7871 39.6421Z" fill="white"/>
<path fill-rule="evenodd" clip-rule="evenodd" d="M33.572 42.1491L30.5252 38.2101L32.6938 35.5043C33.2636 34.6494 33.8711 34.2562 32.7809 34.3139H31.6153L28.5049 38.161L31.9356 42.7454H33.2895C33.2895 42.7454 34.2431 42.8202 33.572 42.1491Z" fill="white"/>
<path d="M53.7963 37.7421V42.7561H51.9268V37.6566C51.9268 35.6005 53.6292 34.2626 55.8048 34.2583C57.9805 34.254 59.8077 35.5877 59.8077 37.6459V37.4322V42.7369H57.9381V37.725L57.9216 37.5454C57.8698 36.075 56.5089 35.7779 55.7836 35.7779C55.0584 35.7779 53.9164 36.1904 53.8034 37.554L53.7963 37.7421Z" fill="white"/>
<path d="M40.4991 39.2723V34.2583H42.3686V39.3578C42.3686 41.416 40.6639 42.7518 38.4882 42.7561C36.3125 42.7604 34.4854 41.4288 34.4854 39.3707V39.5844V34.2754H36.3526L36.3643 39.2894L36.3808 39.4626C36.4326 40.9351 37.7936 41.2365 38.5212 41.2344C39.2488 41.2322 40.386 40.8219 40.5014 39.4561L40.4991 39.2723Z" fill="white"/>
<path d="M25.7454 43.9337C24.7141 43.4207 23.9488 42.9869 23.9488 42.9869C23.4779 42.6599 22.9458 42.2666 22.3124 41.7815C19.3479 39.501 18.2436 36.8037 18.107 34.1664C18.107 28.8039 24.6811 24.4418 32.8187 24.4289C39.1927 24.4289 44.6813 26.9937 46.7369 30.7296L46.8523 30.8899L65.6681 30.86C65.6822 30.4838 65.6893 30.1376 65.6893 29.7593C65.6779 25.2248 64.527 20.7523 62.3243 16.6824C60.1216 12.6124 56.9251 9.05215 52.978 6.27253C49.0309 3.49292 44.4373 1.5672 39.5467 0.641912C34.6561 -0.283374 29.5975 -0.183841 24.7556 0.932938C19.9138 2.04972 15.4164 4.15431 11.6058 7.08657C7.7951 10.0188 4.77155 13.7015 2.76521 17.8542C0.758873 22.007 -0.177384 26.5205 0.0276869 31.0512C0.232758 35.582 1.57375 40.0105 3.94863 43.9999L25.7454 43.9636" fill="#F00014"/>
<path d="M128.871 22.3001C127.256 21.8727 126.062 19.8422 126.06 18.3077C126.057 16.7731 127.237 14.5675 128.855 14.125C130.918 13.5808 133.109 13.5808 135.172 14.125C136.79 14.5525 137.981 16.7603 137.983 18.2949C137.986 19.8294 136.806 21.8577 135.189 22.298C133.124 22.8351 130.935 22.8351 128.871 22.298V22.3001ZM125.502 25.0914C129.783 26.2015 134.321 26.194 138.598 25.07C141.949 24.1617 144.4 21.458 144.393 18.2778C144.386 15.0975 141.913 12.396 138.56 11.5048C134.279 10.3974 129.741 10.4049 125.464 11.5261C122.111 12.4366 119.657 15.1402 119.662 18.3162C119.667 21.4922 122.137 24.1937 125.502 25.0914Z" fill="white"/>
<path d="M205.813 30.8728L205.818 33.6064L231.973 33.5636L231.992 43.4934L238.256 43.4827L238.232 30.8215L205.813 30.8728Z" fill="white"/>
<path d="M89.5892 33.598C89.5703 32.1318 90.0601 31.4607 90.0601 31.4607L82.8408 31.4735C82.8408 31.4735 83.34 32.1425 83.3259 33.6108L83.3424 41.9055H83.3541C83.3541 42.9036 84.4537 43.7115 85.8077 43.7094H85.8265L117.553 43.6581V41.0079L89.601 41.0528L89.5892 33.598Z" fill="white"/>
<path d="M150.823 13.1184L150.849 26.3845H157.11L157.081 13.1163C157.063 11.6501 157.552 10.979 157.552 10.979H150.333C150.333 10.979 150.835 11.6522 150.823 13.1184Z" fill="white"/>
<path d="M157.1 28.2761L122.487 28.3338V30.9798L150.837 30.9349V34.4315L122.516 34.4785V34.7307H122.504L122.518 41.8542V41.8692C122.518 42.8694 123.618 43.6794 124.971 43.6773H124.988L157.112 43.6239V40.9737L128.798 41.0356V37.133L157.126 37.0881V36.7996L157.112 29.3426L157.1 28.2761Z" fill="white"/>
<path d="M238.182 12.9732C238.166 11.507 238.653 10.8359 238.653 10.8359H231.432C231.432 10.8359 231.931 11.507 231.914 12.9732L231.945 28.6822L238.204 28.6715V22.8324H243.445V19.9749H238.204V17.5683H243.445V14.8177H238.204L238.182 12.9732Z" fill="white"/>
<path d="M192.701 13.0372L192.759 43.5489L198.625 43.5382L198.564 13.0372C198.545 11.571 199.034 10.8999 199.034 10.8999H192.206C192.206 10.8999 192.712 11.5817 192.701 13.0372Z" fill="white"/>
<path d="M184.132 13.0609L184.146 19.9707H178.966V22.7662H184.146L184.186 43.5704H190.051L189.99 13.0609C189.971 11.5947 190.461 10.9236 190.461 10.9236H183.633C183.633 10.9236 184.146 11.5947 184.132 13.0609Z" fill="white"/>
<path d="M174.415 21.9925L174.4 14.1231H180.817V11.3062L161.057 11.3275V14.1444L167.692 14.1338L167.709 22.0032C167.709 22.0032 168.13 30.2894 160.266 34.1579L163.484 35.9681C167.315 34.1322 169.903 31.4392 171.076 29.2528C172.253 31.435 175.079 34.4015 178.25 35.842L181.653 34.0809C173.47 30.4369 174.415 21.9925 174.415 21.9925Z" fill="white"/>
<path d="M101.291 20.0903C101.291 20.0903 101.844 19.526 102.386 17.7157C102.753 16.6477 102.937 15.5346 102.93 14.4158V13.2018L102.951 13.1869V11.4771L82.381 11.5112V14.1593L96.3463 14.138C96.3204 16.2132 95.4045 25.0573 81.6699 25.5638L82.1126 28.1072C93.7303 27.8934 98.5691 24.3862 100.841 20.7827L101.291 20.0903Z" fill="white"/>
<path d="M110.383 11.0261C110.383 11.0261 110.882 11.6993 110.87 13.1633L110.884 20.1437H105.504V22.9221H110.882L110.903 34.4099L117.159 34.3993L117.117 13.1612C117.1 11.695 117.588 11.0239 117.588 11.0239L110.383 11.0261Z" fill="white"/>
<path d="M211.429 23.185C209.809 22.7512 208.62 20.7314 208.62 19.1969C208.62 17.6623 209.797 15.4524 211.415 15.0142C213.478 14.477 215.666 14.477 217.73 15.0142C219.35 15.4417 220.536 17.6516 220.539 19.1883C220.541 20.725 219.361 22.7469 217.744 23.1872C215.682 23.7286 213.493 23.7286 211.431 23.1872L211.429 23.185ZM208.045 25.9806C210.175 26.5332 212.38 26.8116 214.596 26.8077C216.811 26.8011 219.014 26.5134 221.142 25.9528C224.487 25.0444 226.943 22.3408 226.936 19.1605C226.929 15.9803 224.466 13.2937 221.116 12.3961C216.833 11.2888 212.295 11.2962 208.017 12.4174C204.669 13.3279 202.213 16.0294 202.22 19.2097C202.227 22.3899 204.692 25.0829 208.045 25.9806Z" fill="white"/>
<path d="M253.915 42.9592L253.233 43.641C252.179 43.0248 251.243 42.2575 250.461 41.369C249.546 40.4007 248.783 39.3218 248.194 38.1631C247.787 37.3607 247.485 36.5179 247.294 35.6518C247.09 34.6726 246.993 33.6775 247.005 32.681C246.982 31.2168 247.19 29.7571 247.624 28.3466C248.083 26.9672 248.8 25.6696 249.743 24.5102C250.673 23.3132 251.815 22.264 253.122 21.4048L253.866 22.016C253.183 22.7621 252.592 23.5742 252.105 24.4376C251.68 25.3293 251.389 26.2689 251.241 27.231C250.92 29.0937 250.773 30.9776 250.8 32.8627C250.8 35.597 251.055 37.6993 251.566 39.1698C252.03 40.5752 252.833 41.8695 253.915 42.9592Z" fill="white"/>
<path d="M279.094 22.0439L279.777 21.3621C280.833 21.9753 281.772 22.7422 282.555 23.6318C283.467 24.6015 284.227 25.6802 284.815 26.8378C285.231 27.6379 285.536 28.4813 285.724 29.349C285.921 30.329 286.014 31.3238 286.002 32.3199C286.023 33.7841 285.814 35.2436 285.381 36.6542C284.921 38.037 284.205 39.3382 283.261 40.5013C282.328 41.6948 281.186 42.7416 279.88 43.6004L279.134 42.9848C279.824 42.2422 280.419 41.4305 280.907 40.5654C281.327 39.6713 281.615 38.7305 281.764 37.7678C282.094 35.9074 282.245 34.0245 282.216 32.1403C282.216 29.4046 281.959 27.3015 281.446 25.8311C280.976 24.428 280.173 23.1353 279.094 22.0439Z" fill="white"/>
<path d="M254.097 36.7182L264.404 36.7011L264.415 43.4613L268.658 43.4549L268.647 36.6947L278.845 36.6776L278.84 34.8374L254.093 34.878L254.097 36.7182Z" fill="white"/>
<path d="M268.971 23.3368L278.267 23.3219V21.4817L254.721 21.5202V23.3604L264.003 23.3454C263.847 25.5959 262.388 29.5755 254.222 30.3001L254.82 32.2108C261.667 31.7534 264.931 29.676 266.494 27.7503C268.057 29.6738 271.335 31.7385 278.182 32.1723L278.797 30.315C270.615 29.6161 269.134 25.6023 268.971 23.3368Z" fill="white"/>
</g>
<defs>
<clipPath id="clip0_515_91">
<rect width="286" height="44" fill="white"/>
</clipPath>
</defs>
</svg>
